<svg width="20" height="20" viewBox="0 0 20 20" fill="none" xmlns="http://www.w3.org/2000/svg">
<g id="atr">
<mask id="mask0_5164_415" style="mask-type:alpha" maskUnits="userSpaceOnUse" x="0" y="0" width="20" height="20">
<rect id="Bounding box" width="20" height="20" fill="#D9D9D9"/>
</mask>
<g mask="url(#mask0_5164_415)">
<path id="atr_2" d="M5 16.6668C4.30556 16.6668 3.71528 16.4238 3.22917 15.9377C2.74306 15.4516 2.5 14.8613 2.5 14.1668C2.5 13.4724 2.74306 12.8821 3.22917 12.396C3.71528 11.9099 4.30556 11.6668 5 11.6668C5.69444 11.6668 6.28472 11.9099 6.77083 12.396C7.25694 12.8821 7.5 13.4724 7.5 14.1668C7.5 14.8613 7.25694 15.4516 6.77083 15.9377C6.28472 16.4238 5.69444 16.6668 5 16.6668ZM15 16.6668C14.3056 16.6668 13.7153 16.4238 13.2292 15.9377C12.7431 15.4516 12.5 14.8613 12.5 14.1668C12.5 13.4724 12.7431 12.8821 13.2292 12.396C13.7153 11.9099 14.3056 11.6668 15 11.6668C15.6944 11.6668 16.2847 11.9099 16.7708 12.396C17.2569 12.8821 17.5 13.4724 17.5 14.1668C17.5 14.8613 17.2569 15.4516 16.7708 15.9377C16.2847 16.4238 15.6944 16.6668 15 16.6668ZM10 8.3335C9.30556 8.3335 8.71528 8.09044 8.22917 7.60433C7.74306 7.11822 7.5 6.52794 7.5 5.8335C7.5 5.13905 7.74306 4.54877 8.22917 4.06266C8.71528 3.57655 9.30556 3.3335 10 3.3335C10.6944 3.3335 11.2847 3.57655 11.7708 4.06266C12.2569 4.54877 12.5 5.13905 12.5 5.8335C12.5 6.52794 12.2569 7.11822 11.7708 7.60433C11.2847 8.09044 10.6944 8.3335 10 8.3335Z" fill="#E6C100"/>
</g>
</g>
</svg>
