<svg width="20" height="20" viewBox="0 0 20 20" fill="none" xmlns="http://www.w3.org/2000/svg">
<g id="deployed_code_alert">
<mask id="mask0_6101_3326" style="mask-type:alpha" maskUnits="userSpaceOnUse" x="0" y="0" width="20" height="20">
<rect id="Bounding box" width="20" height="20" fill="#D9D9D9"/>
</mask>
<g mask="url(#mask0_6101_3326)">
<path id="deployed_code_alert_2" d="M10 3.33366L5.0625 6.18783L10 9.04199L14.9375 6.18783L10 3.33366ZM2.5 13.3128V6.68783C2.5 6.38227 2.57292 6.10449 2.71875 5.85449C2.86458 5.60449 3.06944 5.4031 3.33333 5.25033L9.16667 1.89616C9.30556 1.82671 9.44097 1.77116 9.57292 1.72949C9.70486 1.68783 9.84722 1.66699 10 1.66699C10.1528 1.66699 10.2986 1.68783 10.4375 1.72949C10.5764 1.77116 10.7083 1.82671 10.8333 1.89616L16.6667 5.25033C16.9306 5.4031 17.1354 5.60449 17.2813 5.85449C17.4271 6.10449 17.5 6.38227 17.5 6.68783V10.0003H15.8333V7.58366L9.97917 10.9587L4.16667 7.58366V13.292L9.16667 16.1878V18.1045L3.33333 14.7503C3.06944 14.5975 2.86458 14.3962 2.71875 14.1462C2.57292 13.8962 2.5 13.6184 2.5 13.3128ZM15 18.3337C15.1111 18.3337 15.2083 18.292 15.2917 18.2087C15.375 18.1253 15.4167 18.0281 15.4167 17.917C15.4167 17.8059 15.375 17.7087 15.2917 17.6253C15.2083 17.542 15.1111 17.5003 15 17.5003C14.8889 17.5003 14.7917 17.542 14.7083 17.6253C14.625 17.7087 14.5833 17.8059 14.5833 17.917C14.5833 18.0281 14.625 18.1253 14.7083 18.2087C14.7917 18.292 14.8889 18.3337 15 18.3337ZM14.5833 16.667H15.4167V13.3337H14.5833V16.667ZM15 20.0003C13.8472 20.0003 12.8646 19.5941 12.0521 18.7816C11.2396 17.9691 10.8333 16.9864 10.8333 15.8337C10.8333 14.6809 11.2396 13.6982 12.0521 12.8857C12.8646 12.0732 13.8472 11.667 15 11.667C16.1528 11.667 17.1354 12.0732 17.9479 12.8857C18.7604 13.6982 19.1667 14.6809 19.1667 15.8337C19.1667 16.9864 18.7604 17.9691 17.9479 18.7816C17.1354 19.5941 16.1528 20.0003 15 20.0003Z" fill="#34A853"/>
</g>
</g>
</svg>
