<svg width="20" height="20" viewBox="0 0 20 20" fill="none" xmlns="http://www.w3.org/2000/svg">
<g id="diversity_2">
<mask id="mask0_5164_491" style="mask-type:alpha" maskUnits="userSpaceOnUse" x="0" y="0" width="20" height="20">
<rect id="Bounding box" width="20" height="20" fill="#D9D9D9"/>
</mask>
<g mask="url(#mask0_5164_491)">
<path id="diversity_2_2" d="M7.29167 18.6873C6.65278 18.6873 6.07986 18.5207 5.57292 18.1873C5.06597 17.854 4.67361 17.3957 4.39583 16.8123C4.17361 17.104 3.89236 17.3297 3.55208 17.4894C3.21181 17.6491 2.86111 17.729 2.5 17.729C1.79167 17.729 1.19792 17.486 0.71875 16.9998C0.239583 16.5137 0 15.9234 0 15.229C0 14.6318 0.194444 14.0936 0.583333 13.6144C0.972222 13.1353 1.46528 12.8609 2.0625 12.7915C1.86806 12.5137 1.71875 12.2186 1.61458 11.9061C1.51042 11.5936 1.45833 11.2637 1.45833 10.9165C1.45833 10.3609 1.60069 9.84012 1.88542 9.354C2.17014 8.86789 2.56944 8.47206 3.08333 8.1665C3.15278 8.4165 3.24653 8.68387 3.36458 8.96859C3.48264 9.25331 3.61806 9.49984 3.77083 9.70817C3.57639 9.86095 3.42361 10.045 3.3125 10.2603C3.20139 10.4755 3.14583 10.7012 3.14583 10.9373C3.14583 11.7151 3.46528 12.1943 4.10417 12.3748C4.74306 12.5554 5.34722 12.7012 5.91667 12.8123L6.3125 13.479C6.15972 13.9234 6.02778 14.3019 5.91667 14.6144C5.80556 14.9269 5.75 15.2082 5.75 15.4582C5.75 15.8748 5.89931 16.2394 6.19792 16.5519C6.49653 16.8644 6.86111 17.0207 7.29167 17.0207C7.81944 17.0207 8.25694 16.7846 8.60417 16.3123C8.95139 15.8401 9.23611 15.2846 9.45833 14.6457C9.68056 14.0068 9.85069 13.3609 9.96875 12.7082C10.0868 12.0554 10.1806 11.5554 10.25 11.2082L11.875 11.6457C11.75 12.2707 11.5972 12.9859 11.4167 13.7915C11.2361 14.5971 10.9826 15.3644 10.6562 16.0936C10.3299 16.8228 9.89931 17.4373 9.36458 17.9373C8.82986 18.4373 8.13889 18.6873 7.29167 18.6873ZM2.5 16.0623C2.73611 16.0623 2.93403 15.9825 3.09375 15.8228C3.25347 15.663 3.33333 15.4651 3.33333 15.229C3.33333 14.9929 3.25347 14.795 3.09375 14.6353C2.93403 14.4755 2.73611 14.3957 2.5 14.3957C2.26389 14.3957 2.06597 14.4755 1.90625 14.6353C1.74653 14.795 1.66667 14.9929 1.66667 15.229C1.66667 15.4651 1.74653 15.663 1.90625 15.8228C2.06597 15.9825 2.26389 16.0623 2.5 16.0623ZM8.41667 12.7707C7.77778 12.2012 7.19792 11.67 6.67708 11.1769C6.15625 10.6839 5.70833 10.2047 5.33333 9.73942C4.95833 9.27414 4.67014 8.80887 4.46875 8.34359C4.26736 7.87831 4.16667 7.39567 4.16667 6.89567C4.16667 5.99289 4.47569 5.23248 5.09375 4.61442C5.71181 3.99637 6.47222 3.68734 7.375 3.68734C7.43056 3.68734 7.47917 3.69081 7.52083 3.69775C7.5625 3.7047 7.61111 3.70817 7.66667 3.70817C7.61111 3.56928 7.56944 3.43039 7.54167 3.2915C7.51389 3.15262 7.5 3.00678 7.5 2.854C7.5 2.15956 7.74306 1.56928 8.22917 1.08317C8.71528 0.597059 9.30556 0.354004 10 0.354004C10.6944 0.354004 11.2847 0.597059 11.7708 1.08317C12.2569 1.56928 12.5 2.15956 12.5 2.854C12.5 3.00678 12.4861 3.14914 12.4583 3.28109C12.4306 3.41303 12.3889 3.54845 12.3333 3.68734H12.625C13.4583 3.68734 14.1667 3.9547 14.75 4.48942C15.3333 5.02414 15.6806 5.68734 15.7917 6.479C15.5417 6.43734 15.2604 6.4165 14.9479 6.4165C14.6354 6.4165 14.3472 6.43039 14.0833 6.45817C13.9861 6.13873 13.809 5.87484 13.5521 5.6665C13.2951 5.45817 12.9861 5.354 12.625 5.354C12.1389 5.354 11.7604 5.49637 11.4896 5.78109C11.2188 6.06581 10.8472 6.479 10.375 7.02067H9.60417C9.11806 6.45123 8.73958 6.03109 8.46875 5.76025C8.19792 5.48942 7.83333 5.354 7.375 5.354C6.93056 5.354 6.5625 5.49984 6.27083 5.7915C5.97917 6.08317 5.83333 6.45123 5.83333 6.89567C5.83333 7.21512 5.92361 7.54498 6.10417 7.88525C6.28472 8.22553 6.53819 8.58664 6.86458 8.96859C7.19097 9.35053 7.58681 9.75678 8.05208 10.1873C8.51736 10.6179 9.03472 11.0832 9.60417 11.5832L8.41667 12.7707ZM10 3.68734C10.2361 3.68734 10.434 3.60748 10.5938 3.44775C10.7535 3.28803 10.8333 3.09012 10.8333 2.854C10.8333 2.61789 10.7535 2.41998 10.5938 2.26025C10.434 2.10053 10.2361 2.02067 10 2.02067C9.76389 2.02067 9.56597 2.10053 9.40625 2.26025C9.24653 2.41998 9.16667 2.61789 9.16667 2.854C9.16667 3.09012 9.24653 3.28803 9.40625 3.44775C9.56597 3.60748 9.76389 3.68734 10 3.68734ZM12.6875 18.6873C12.3819 18.6873 12.0799 18.6457 11.7812 18.5623C11.4826 18.479 11.1944 18.3471 10.9167 18.1665C11.0694 17.9721 11.2222 17.7429 11.375 17.479C11.5278 17.2151 11.6667 16.9721 11.7917 16.7498C11.9444 16.8471 12.0972 16.9165 12.25 16.9582C12.4028 16.9998 12.5556 17.0207 12.7083 17.0207C13.1528 17.0207 13.5243 16.8644 13.8229 16.5519C14.1215 16.2394 14.2708 15.8679 14.2708 15.4373C14.2708 15.1734 14.2153 14.8887 14.1042 14.5832C13.9931 14.2776 13.8611 13.9026 13.7083 13.4582L14.1042 12.7915C14.6875 12.6804 15.2951 12.5346 15.9271 12.354C16.559 12.1734 16.875 11.6943 16.875 10.9165C16.875 10.3609 16.6701 9.95817 16.2604 9.70817C15.8507 9.45817 15.4028 9.33317 14.9167 9.33317C14.3333 9.33317 13.6528 9.44428 12.875 9.6665C12.0972 9.88873 11.1875 10.1734 10.1458 10.5207L9.70833 8.89567C10.7917 8.54845 11.7569 8.25678 12.6042 8.02067C13.4514 7.78456 14.2292 7.6665 14.9375 7.6665C15.8958 7.6665 16.7361 7.95123 17.4583 8.52067C18.1806 9.09012 18.5417 9.88873 18.5417 10.9165C18.5417 11.2637 18.4896 11.5936 18.3854 11.9061C18.2812 12.2186 18.1319 12.5137 17.9375 12.7915C18.5347 12.8609 19.0278 13.1353 19.4167 13.6144C19.8056 14.0936 20 14.6318 20 15.229C20 15.9234 19.7604 16.5137 19.2812 16.9998C18.8021 17.486 18.2083 17.729 17.5 17.729C17.1389 17.729 16.7882 17.6491 16.4479 17.4894C16.1076 17.3297 15.8264 17.104 15.6042 16.8123C15.3264 17.3957 14.934 17.854 14.4271 18.1873C13.9201 18.5207 13.3403 18.6873 12.6875 18.6873ZM17.5208 16.0623C17.7569 16.0623 17.9514 15.9825 18.1042 15.8228C18.2569 15.663 18.3333 15.4651 18.3333 15.229C18.3333 14.9929 18.2535 14.7915 18.0938 14.6248C17.934 14.4582 17.7361 14.3748 17.5 14.3748C17.2639 14.3748 17.066 14.4547 16.9062 14.6144C16.7465 14.7741 16.6667 14.9721 16.6667 15.2082C16.6667 15.4443 16.75 15.6457 16.9167 15.8123C17.0833 15.979 17.2847 16.0623 17.5208 16.0623Z" fill="#077BD8"/>
</g>
</g>
</svg>
