<svg width="24" height="24" viewBox="0 0 24 24" fill="none" xmlns="http://www.w3.org/2000/svg">
<g id="Employee">
<path id="Vector" d="M7.125 12.75C6.45749 12.75 5.80497 12.5521 5.24995 12.1812C4.69494 11.8104 4.26235 11.2833 4.00691 10.6666C3.75146 10.0499 3.68463 9.37126 3.81485 8.71657C3.94508 8.06189 4.26651 7.46052 4.73852 6.98852C5.21052 6.51651 5.81189 6.19508 6.46657 6.06485C7.12126 5.93463 7.79986 6.00146 8.41656 6.25691C9.03326 6.51235 9.56036 6.94494 9.93121 7.49995C10.3021 8.05497 10.5 8.70749 10.5 9.375C10.498 10.2695 10.1418 11.1268 9.5093 11.7593C8.87679 12.3918 8.0195 12.748 7.125 12.75ZM7.125 7.5C6.75416 7.5 6.39165 7.60997 6.08331 7.816C5.77497 8.02202 5.53464 8.31486 5.39273 8.65747C5.25081 9.00008 5.21368 9.37708 5.28603 9.7408C5.35838 10.1045 5.53695 10.4386 5.79918 10.7008C6.0614 10.9631 6.39549 11.1416 6.75921 11.214C7.12292 11.2863 7.49992 11.2492 7.84253 11.1073C8.18514 10.9654 8.47798 10.725 8.68401 10.4167C8.89003 10.1084 9 9.74584 9 9.375C9 9.12877 8.9515 8.88496 8.85728 8.65747C8.76305 8.42999 8.62494 8.22329 8.45083 8.04918C8.27672 7.87507 8.07002 7.73696 7.84253 7.64273C7.61505 7.5485 7.37123 7.5 7.125 7.5ZM15.375 10.5C14.5592 10.5 13.7616 10.2581 13.0833 9.80481C12.4049 9.35155 11.8762 8.70732 11.564 7.95357C11.2518 7.19983 11.1701 6.37043 11.3293 5.57025C11.4884 4.77008 11.8813 4.03508 12.4582 3.45819C13.0351 2.88129 13.7701 2.48843 14.5703 2.32926C15.3704 2.1701 16.1998 2.25179 16.9536 2.564C17.7073 2.87621 18.3516 3.40492 18.8048 4.08327C19.2581 4.76163 19.5 5.55915 19.5 6.375C19.498 7.46841 19.0628 8.51647 18.2896 9.28963C17.5165 10.0628 16.4684 10.498 15.375 10.5ZM15.375 3.75C14.8558 3.75 14.3483 3.90396 13.9166 4.19239C13.485 4.48083 13.1485 4.8908 12.9498 5.37046C12.7511 5.85011 12.6992 6.37791 12.8004 6.88711C12.9017 7.39631 13.1517 7.86404 13.5188 8.23116C13.886 8.59827 14.3537 8.84828 14.8629 8.94956C15.3721 9.05085 15.8999 8.99887 16.3795 8.80019C16.8592 8.60151 17.2692 8.26505 17.5576 7.83337C17.846 7.4017 18 6.89418 18 6.375C18 5.67881 17.7234 5.01113 17.2312 4.51885C16.7389 4.02656 16.0712 3.75 15.375 3.75ZM21.75 22.5H9C8.80109 22.5 8.61032 22.421 8.46967 22.2803C8.32902 22.1397 8.25 21.9489 8.25 21.75C8.25 21.5511 8.32902 21.3603 8.46967 21.2197C8.61032 21.079 8.80109 21 9 21H21V16.815C20.998 15.7216 20.5628 14.6735 19.7896 13.9004C19.0165 13.1272 17.9684 12.692 16.875 12.69H13.875C13.0809 12.6934 12.3047 12.9258 11.6395 13.3595C10.9743 13.7933 10.4484 14.4097 10.125 15.135C10.0888 15.2308 10.0333 15.3181 9.96207 15.3916C9.89082 15.4651 9.80526 15.5233 9.71068 15.5625C9.6161 15.6017 9.51449 15.6211 9.41212 15.6196C9.30974 15.618 9.20877 15.5955 9.11542 15.5535C9.02208 15.5114 8.93833 15.4507 8.86934 15.375C8.80035 15.2994 8.74758 15.2104 8.71428 15.1136C8.68098 15.0168 8.66786 14.9141 8.67572 14.8121C8.68359 14.71 8.71227 14.6106 8.76 14.52C9.20121 13.5281 9.92073 12.6855 10.8313 12.0944C11.7419 11.5034 12.8044 11.1892 13.89 11.19H16.89C18.3818 11.19 19.8126 11.7826 20.8675 12.8375C21.9224 13.8924 22.515 15.3232 22.515 16.815V21.75C22.515 21.8498 22.4951 21.9485 22.4565 22.0405C22.4179 22.1325 22.3613 22.2159 22.2901 22.2857C22.2188 22.3556 22.1344 22.4105 22.0416 22.4473C21.9489 22.4841 21.8497 22.502 21.75 22.5Z" fill="#8B8B8B"/>
<path id="Vector_2" d="M12 22.5H2.25C2.05109 22.5 1.86032 22.421 1.71967 22.2803C1.57902 22.1397 1.5 21.9489 1.5 21.75V19.125C1.5 17.6332 2.09263 16.2024 3.14752 15.1475C4.20242 14.0926 5.63316 13.5 7.125 13.5C8.61684 13.5 10.0476 14.0926 11.1025 15.1475C12.1574 16.2024 12.75 17.6332 12.75 19.125V21.75C12.75 21.9489 12.671 22.1397 12.5303 22.2803C12.3897 22.421 12.1989 22.5 12 22.5ZM3 21H11.25V19.125C11.25 18.031 10.8154 16.9818 10.0418 16.2082C9.26823 15.4346 8.21902 15 7.125 15C6.03098 15 4.98177 15.4346 4.20818 16.2082C3.4346 16.9818 3 18.031 3 19.125V21Z" fill="#8B8B8B"/>
<path id="Vector_3" d="M5.75 21.1125C5.55109 21.1125 5.36032 21.0335 5.21967 20.8928C5.07902 20.7522 5 20.5614 5 20.3625V18.8625C5 18.6636 5.07902 18.4728 5.21967 18.3322C5.36032 18.1915 5.55109 18.1125 5.75 18.1125C5.94891 18.1125 6.13968 18.1915 6.28033 18.3322C6.42098 18.4728 6.5 18.6636 6.5 18.8625V20.3625C6.5 20.5614 6.42098 20.7522 6.28033 20.8928C6.13968 21.0335 5.94891 21.1125 5.75 21.1125ZM19.25 21C19.0511 21 18.8603 20.921 18.7197 20.7803C18.579 20.6397 18.5 20.4489 18.5 20.25V18.75C18.5 18.5511 18.579 18.3603 18.7197 18.2197C18.8603 18.079 19.0511 18 19.25 18C19.4489 18 19.6397 18.079 19.7803 18.2197C19.921 18.3603 20 18.5511 20 18.75V20.25C20 20.4489 19.921 20.6397 19.7803 20.7803C19.6397 20.921 19.4489 21 19.25 21Z" fill="#8B8B8B"/>
</g>
</svg>
