<svg width="24" height="24" viewBox="0 0 24 24" fill="none" xmlns="http://www.w3.org/2000/svg">
<g id="Meeting">
<path id="Vector" d="M19.3125 20.25V15H18.5625V20.25C18.5625 20.3495 18.602 20.4448 18.6723 20.5152C18.7427 20.5855 18.838 20.625 18.9375 20.625C19.037 20.625 19.1323 20.5855 19.2027 20.5152C19.273 20.4448 19.3125 20.3495 19.3125 20.25Z" fill="#1B94F6"/>
<path id="Vector_2" d="M12 5.25C13.4497 5.25 14.625 4.07475 14.625 2.625C14.625 1.17525 13.4497 0 12 0C10.5503 0 9.375 1.17525 9.375 2.625C9.375 4.07475 10.5503 5.25 12 5.25Z" fill="#1B94F6"/>
<path id="Vector_3" d="M13.5671 5.73994H13.824C15.2422 5.73994 16.4865 6.94931 16.4865 8.328V11.0625H17.25V8.328C17.25 6.77156 16.0211 5.38294 14.4894 5.0625C14.2219 5.33816 13.9102 5.56713 13.5671 5.73994ZM7.51369 8.328C7.51369 6.94931 8.75794 5.73994 10.1762 5.73994H10.4331C10.0899 5.56715 9.77802 5.33818 9.51038 5.0625C7.97869 5.38313 6.75 6.77156 6.75 8.328V11.0625H7.51369V8.328Z" fill="#1B94F6"/>
<path id="Vector_4" d="M12 12.9375C13.4497 12.9375 14.625 11.7622 14.625 10.3125C14.625 8.86275 13.4497 7.6875 12 7.6875C10.5503 7.6875 9.375 8.86275 9.375 10.3125C9.375 11.7622 10.5503 12.9375 12 12.9375Z" fill="#1B94F6"/>
<path id="Vector_5" d="M6.9375 16.9612V20.0559C6.93735 20.2561 7.01663 20.4482 7.15793 20.5901C7.29924 20.7319 7.49104 20.8119 7.69125 20.8125H8.625C8.62562 21.1611 8.73407 21.5009 8.93549 21.7854C9.13691 22.0699 9.42142 22.2852 9.75 22.4016V23.625C9.75 23.7245 9.78951 23.8198 9.85983 23.8902C9.93016 23.9605 10.0255 24 10.125 24C10.2245 24 10.3198 23.9605 10.3902 23.8902C10.4605 23.8198 10.5 23.7245 10.5 23.625V22.5H13.6875V23.625C13.6875 23.7245 13.727 23.8198 13.7973 23.8902C13.8677 23.9605 13.963 24 14.0625 24C14.162 24 14.2573 23.9605 14.3277 23.8902C14.398 23.8198 14.4375 23.7245 14.4375 23.625V22.3219C14.7187 22.1823 14.9553 21.9672 15.1209 21.7005C15.2865 21.4339 15.3745 21.1264 15.375 20.8125H16.3088C16.509 20.8119 16.7008 20.7319 16.8421 20.5901C16.9834 20.4482 17.0626 20.2561 17.0625 20.0559V16.9612C17.0625 15.2173 15.5175 13.6875 13.7561 13.6875H10.2441C8.4825 13.6875 6.9375 15.2175 6.9375 16.9612ZM10.2441 14.4375H13.7561C14.4246 14.4501 15.0626 14.719 15.5384 15.1888C16.0142 15.6585 16.2913 16.293 16.3125 16.9612L16.3093 20.0625L15.375 20.0618V17.0625C15.3747 16.814 15.2758 16.5757 15.1001 16.3999C14.9243 16.2242 14.686 16.1253 14.4375 16.125H9.5625C9.31395 16.1253 9.07567 16.2242 8.89992 16.3999C8.72417 16.5757 8.6253 16.814 8.625 17.0625V20.0567L7.6875 20.0559V16.9612C7.6875 15.6169 8.88225 14.4375 10.2441 14.4375ZM5.4375 20.25V15H4.6875V20.25C4.6875 20.3495 4.72701 20.4448 4.79734 20.5152C4.86766 20.5855 4.96304 20.625 5.0625 20.625C5.16196 20.625 5.25734 20.5855 5.32766 20.5152C5.39799 20.4448 5.4375 20.3495 5.4375 20.25ZM3.1875 14.25H7.30594C8.0124 13.4874 8.98175 13.0211 10.0185 12.945C9.55091 12.6042 9.17787 12.1499 8.93456 11.625H3.9375C3.63924 11.6253 3.35329 11.744 3.14239 11.9549C2.93149 12.1658 2.81285 12.4517 2.8125 12.75V13.875C2.8125 13.9745 2.85201 14.0698 2.92234 14.1402C2.99266 14.2105 3.08804 14.25 3.1875 14.25ZM13.9815 12.945C15.0183 13.021 15.9877 13.4874 16.6943 14.25H20.8125C20.912 14.25 21.0073 14.2105 21.0777 14.1402C21.148 14.0698 21.1875 13.9745 21.1875 13.875V12.75C21.1872 12.4517 21.0685 12.1658 20.8576 11.9549C20.6467 11.744 20.3608 11.6253 20.0625 11.625H15.0656C14.8223 12.15 14.4492 12.6043 13.9815 12.945Z" fill="#1B94F6"/>
</g>
</svg>
