<svg width="24" height="24" viewBox="0 0 24 24" fill="none" xmlns="http://www.w3.org/2000/svg">
<g id="Meeting">
<path id="manufacturing" d="M5.85 11L5.55 9.5C5.35 9.41667 5.1625 9.32917 4.9875 9.2375C4.8125 9.14583 4.63333 9.03333 4.45 8.9L3 9.35L2 7.65L3.15 6.65C3.11667 6.43333 3.1 6.21667 3.1 6C3.1 5.78333 3.11667 5.56667 3.15 5.35L2 4.35L3 2.65L4.45 3.1C4.63333 2.96667 4.8125 2.85417 4.9875 2.7625C5.1625 2.67083 5.35 2.58333 5.55 2.5L5.85 1H7.85L8.15 2.5C8.35 2.58333 8.5375 2.67083 8.7125 2.7625C8.8875 2.85417 9.06667 2.96667 9.25 3.1L10.7 2.65L11.7 4.35L10.55 5.35C10.5833 5.56667 10.6 5.78333 10.6 6C10.6 6.21667 10.5833 6.43333 10.55 6.65L11.7 7.65L10.7 9.35L9.25 8.9C9.06667 9.03333 8.8875 9.14583 8.7125 9.2375C8.5375 9.32917 8.35 9.41667 8.15 9.5L7.85 11H5.85ZM6.85 8C7.4 8 7.87083 7.80417 8.2625 7.4125C8.65417 7.02083 8.85 6.55 8.85 6C8.85 5.45 8.65417 4.97917 8.2625 4.5875C7.87083 4.19583 7.4 4 6.85 4C6.3 4 5.82917 4.19583 5.4375 4.5875C5.04583 4.97917 4.85 5.45 4.85 6C4.85 6.55 5.04583 7.02083 5.4375 7.4125C5.82917 7.80417 6.3 8 6.85 8ZM14.8 22L14.35 19.9C14.0667 19.8 13.8042 19.6792 13.5625 19.5375C13.3208 19.3958 13.0833 19.2333 12.85 19.05L10.85 19.7L9.45 17.3L11.05 15.9C11.0167 15.6 11 15.3 11 15C11 14.7 11.0167 14.4 11.05 14.1L9.45 12.7L10.85 10.3L12.85 10.95C13.0833 10.7667 13.3208 10.6042 13.5625 10.4625C13.8042 10.3208 14.0667 10.2 14.35 10.1L14.8 8H17.6L18.05 10.1C18.3333 10.2 18.5958 10.3208 18.8375 10.4625C19.0792 10.6042 19.3167 10.7667 19.55 10.95L21.55 10.3L22.95 12.7L21.35 14.1C21.3833 14.4 21.4 14.7 21.4 15C21.4 15.3 21.3833 15.6 21.35 15.9L22.95 17.3L21.55 19.7L19.55 19.05C19.3167 19.2333 19.0792 19.3958 18.8375 19.5375C18.5958 19.6792 18.3333 19.8 18.05 19.9L17.6 22H14.8ZM16.2 18C17.0333 18 17.7417 17.7083 18.325 17.125C18.9083 16.5417 19.2 15.8333 19.2 15C19.2 14.1667 18.9083 13.4583 18.325 12.875C17.7417 12.2917 17.0333 12 16.2 12C15.3667 12 14.6583 12.2917 14.075 12.875C13.4917 13.4583 13.2 14.1667 13.2 15C13.2 15.8333 13.4917 16.5417 14.075 17.125C14.6583 17.7083 15.3667 18 16.2 18Z" fill="#8B8B8B"/>
</g>
</svg>
