<svg width="187" height="57" viewBox="0 0 187 57" fill="none" xmlns="http://www.w3.org/2000/svg">
<g id="Logo Container">
<path id="Vector" d="M10.7395 25C9.65863 25 8.57783 24.9195 7.497 24.7586C6.41618 24.6207 5.39678 24.4022 4.43878 24.1034C3.48078 23.7816 2.62103 23.3909 1.85955 22.931C1.4174 22.6552 1.11034 22.3219 0.938401 21.931C0.766459 21.5402 0.705037 21.1609 0.754171 20.7931C0.827863 20.4022 0.987535 20.069 1.23317 19.7931C1.50338 19.4943 1.83499 19.3103 2.22801 19.2414C2.62103 19.1724 3.05092 19.2759 3.51763 19.5517C4.59845 20.1495 5.74068 20.5862 6.94431 20.8621C8.14794 21.1379 9.413 21.2759 10.7395 21.2759C12.68 21.2759 14.0924 20.9771 14.9768 20.3793C15.8611 19.7586 16.3032 18.9655 16.3032 18C16.3032 17.1953 15.9839 16.5633 15.3452 16.1034C14.7311 15.6436 13.6626 15.2643 12.1396 14.9655L8.08654 14.1724C5.75295 13.7126 4.00891 12.9426 2.8544 11.8621C1.72446 10.7586 1.15948 9.31034 1.15948 7.51724C1.15948 6.39081 1.40511 5.36781 1.8964 4.44828C2.38769 3.52874 3.07547 2.73564 3.95978 2.06897C4.86864 1.40229 5.93718 0.896552 7.16539 0.551724C8.41815 0.183914 9.79375 0 11.2921 0C12.766 0 14.1661 0.172414 15.4926 0.517242C16.8191 0.862069 18.0105 1.36781 19.0667 2.03448C19.4596 2.28736 19.7176 2.59771 19.8404 2.96552C19.9878 3.33333 20.0247 3.70116 19.951 4.06897C19.8773 4.41379 19.7054 4.71264 19.4351 4.96552C19.1649 5.2184 18.8211 5.36781 18.4034 5.41379C18.0105 5.45978 17.556 5.34483 17.0401 5.06897C16.1313 4.58621 15.2101 4.24138 14.2767 4.03448C13.3432 3.82759 12.3361 3.72414 11.2553 3.72414C10.1254 3.72414 9.15507 3.87357 8.34446 4.17241C7.53385 4.47126 6.90746 4.89655 6.46531 5.44828C6.04772 5.97702 5.83893 6.60919 5.83893 7.34483C5.83893 8.17241 6.1337 8.83914 6.72323 9.34483C7.31277 9.82759 8.3199 10.2069 9.74461 10.4828L13.7608 11.2759C16.1927 11.7586 17.9981 12.5172 19.1772 13.5517C20.3808 14.5862 20.9827 15.9655 20.9827 17.6897C20.9827 18.7931 20.7371 19.7931 20.2457 20.6897C19.7791 21.5862 19.0912 22.3564 18.1824 23C17.2981 23.6436 16.2295 24.1379 14.9768 24.4828C13.724 24.8276 12.3115 25 10.7395 25ZM26.8729 24.931C26.136 24.931 25.5709 24.7471 25.178 24.3793C24.785 23.9884 24.5884 23.4367 24.5884 22.7241V2.24138C24.5884 1.52874 24.785 0.9885 25.178 0.62069C25.5709 0.25288 26.136 0.0689654 26.8729 0.0689654C27.6098 0.0689654 28.1748 0.25288 28.5678 0.62069C28.9854 0.9885 29.1942 1.52874 29.1942 2.24138V11.1724H28.6783C29.2187 9.95397 30.054 9.03448 31.1839 8.41379C32.3384 7.77017 33.6402 7.44828 35.0896 7.44828C36.5389 7.44828 37.7301 7.70121 38.6636 8.2069C39.5971 8.71259 40.2972 9.48276 40.7638 10.5172C41.2305 11.5288 41.4639 12.816 41.4639 14.3793V22.7241C41.4639 23.4367 41.2673 23.9884 40.8744 24.3793C40.4814 24.7471 39.9164 24.931 39.1795 24.931C38.4425 24.931 37.8653 24.7471 37.4477 24.3793C37.0547 23.9884 36.8582 23.4367 36.8582 22.7241V14.5862C36.8582 13.2759 36.5879 12.3219 36.0475 11.7241C35.5317 11.1264 34.7211 10.8276 33.6157 10.8276C32.2647 10.8276 31.1839 11.2298 30.3733 12.0345C29.5871 12.816 29.1942 13.8621 29.1942 15.1724V22.7241C29.1942 24.1953 28.4204 24.931 26.8729 24.931ZM52.0741 25C50.7722 25 49.6054 24.7702 48.5737 24.3103C47.5666 23.8276 46.7683 23.184 46.1787 22.3793C45.6137 21.5747 45.3313 20.6667 45.3313 19.6552C45.3313 18.4138 45.6752 17.4367 46.363 16.7241C47.0507 15.9884 48.1684 15.4598 49.716 15.1379C51.2635 14.816 53.3392 14.6552 55.943 14.6552H57.7853V17.1379H55.9798C54.4568 17.1379 53.2408 17.2069 52.332 17.3448C51.4232 17.4828 50.7722 17.7241 50.3792 18.069C50.0107 18.3909 49.8265 18.8505 49.8265 19.4483C49.8265 20.2069 50.1089 20.8276 50.674 21.3103C51.239 21.7931 52.0249 22.0345 53.0321 22.0345C53.8427 22.0345 54.5551 21.8621 55.1692 21.5172C55.8079 21.1495 56.3114 20.6552 56.6799 20.0345C57.0483 19.4138 57.2326 18.7012 57.2326 17.8966V13.931C57.2326 12.7816 56.9623 11.954 56.422 11.4483C55.8816 10.9426 54.9726 10.6897 53.6953 10.6897C52.9829 10.6897 52.2092 10.7702 51.374 10.931C50.5634 11.0919 49.7036 11.3678 48.7948 11.7586C48.3282 11.9655 47.9105 12.0229 47.542 11.931C47.1981 11.8391 46.928 11.6552 46.7314 11.3793C46.5349 11.0805 46.4367 10.7586 46.4367 10.4138C46.4367 10.069 46.5349 9.73569 46.7314 9.41379C46.928 9.06896 47.2596 8.81603 47.7263 8.65517C48.8562 8.21845 49.937 7.9081 50.9687 7.72414C52.0249 7.54017 52.9829 7.44828 53.8427 7.44828C55.6113 7.44828 57.0607 7.70121 58.1906 8.2069C59.3451 8.71259 60.2048 9.48276 60.7698 10.5172C61.3348 11.5288 61.6172 12.8391 61.6172 14.4483V22.7241C61.6172 23.4367 61.433 23.9884 61.0646 24.3793C60.6961 24.7471 60.1679 24.931 59.4802 24.931C58.7924 24.931 58.2519 24.7471 57.8589 24.3793C57.4905 23.9884 57.3063 23.4367 57.3063 22.7241V21.069H57.601C57.4291 21.8736 57.0852 22.5747 56.5693 23.1724C56.078 23.7471 55.4516 24.1953 54.6902 24.5172C53.9288 24.8391 53.0566 25 52.0741 25ZM68.6502 24.931C67.8888 24.931 67.2993 24.7471 66.8816 24.3793C66.4887 23.9884 66.2921 23.4367 66.2921 22.7241V9.68965C66.2921 8.97707 66.4887 8.43672 66.8816 8.06896C67.2746 7.70121 67.8273 7.51724 68.5397 7.51724C69.2521 7.51724 69.8048 7.70121 70.1978 8.06896C70.5907 8.43672 70.7873 8.97707 70.7873 9.68965V11.8621H70.4188C70.7628 10.4828 71.4382 9.43672 72.4454 8.72414C73.4526 8.01155 74.7912 7.58621 76.4616 7.44828C76.9774 7.40229 77.3828 7.52879 77.6775 7.82759C77.9968 8.10345 78.181 8.54017 78.2302 9.13793C78.2794 9.71259 78.132 10.184 77.7881 10.5517C77.4688 10.8966 76.9774 11.1034 76.3142 11.1724L75.5036 11.2414C74.0053 11.3793 72.8752 11.816 72.1138 12.5517C71.3523 13.2643 70.9715 14.2759 70.9715 15.5862V22.7241C70.9715 23.4367 70.775 23.9884 70.382 24.3793C69.989 24.7471 69.4117 24.931 68.6502 24.931ZM89.3131 25C87.2743 25 85.518 24.6436 84.0442 23.931C82.5703 23.2184 81.4281 22.2069 80.6175 20.8965C79.8314 19.5862 79.4384 18.0345 79.4384 16.2414C79.4384 14.4943 79.8192 12.9655 80.5806 11.6552C81.3667 10.3448 82.4353 9.3219 83.7862 8.58621C85.1619 7.82759 86.7216 7.44828 88.4657 7.44828C89.743 7.44828 90.8852 7.64362 91.8924 8.03448C92.9241 8.42534 93.796 8.98845 94.5084 9.72414C95.2454 10.4598 95.798 11.3564 96.1665 12.4138C96.5595 13.4483 96.7561 14.6207 96.7561 15.931C96.7561 16.3448 96.5963 16.6667 96.2771 16.8966C95.9823 17.1034 95.5525 17.2069 94.9874 17.2069H83.1599V14.7241H93.5136L92.9241 15.2414C92.9241 14.184 92.7522 13.2988 92.4082 12.5862C92.0889 11.8736 91.6099 11.3333 90.9712 10.9655C90.3572 10.5747 89.5834 10.3793 88.6499 10.3793C87.6182 10.3793 86.7339 10.6091 85.997 11.069C85.2846 11.5057 84.7319 12.1379 84.3389 12.9655C83.9705 13.7702 83.7862 14.7357 83.7862 15.8621V16.1034C83.7862 17.9884 84.2529 19.4022 85.1864 20.3448C86.1444 21.2643 87.5445 21.7241 89.3868 21.7241C90.0256 21.7241 90.7378 21.6552 91.5239 21.5172C92.3345 21.3564 93.0959 21.0919 93.8084 20.7241C94.3242 20.4483 94.7787 20.3333 95.1717 20.3793C95.5646 20.4022 95.8717 20.5288 96.0928 20.7586C96.3384 20.9884 96.4858 21.2759 96.535 21.6207C96.5842 21.9426 96.5105 22.2759 96.3139 22.6207C96.142 22.9655 95.8349 23.2643 95.3927 23.5172C94.5329 24.0229 93.5381 24.4022 92.4082 24.6552C91.3028 24.885 90.2711 25 89.3131 25ZM103.204 24.931C102.442 24.931 101.853 24.7357 101.435 24.3448C101.042 23.931 100.846 23.3678 100.846 22.6552V2.34483C100.846 1.60919 101.042 1.04598 101.435 0.655173C101.853 0.264362 102.442 0.0689654 103.204 0.0689654C103.965 0.0689654 104.543 0.264362 104.936 0.655173C105.353 1.04598 105.562 1.60919 105.562 2.34483V22.6552C105.562 23.3678 105.366 23.931 104.972 24.3448C104.579 24.7357 103.99 24.931 103.204 24.931ZM113.087 24.931C112.35 24.931 111.785 24.7471 111.392 24.3793C110.999 23.9884 110.803 23.4367 110.803 22.7241V9.68965C110.803 8.97707 110.999 8.43672 111.392 8.06896C111.785 7.70121 112.338 7.51724 113.05 7.51724C113.762 7.51724 114.315 7.70121 114.708 8.06896C115.101 8.43672 115.298 8.97707 115.298 9.68965V12.0345L114.892 11.1724C115.433 9.95397 116.268 9.03448 117.398 8.41379C118.552 7.77017 119.854 7.44828 121.304 7.44828C122.753 7.44828 123.944 7.70121 124.878 8.2069C125.811 8.71259 126.511 9.48276 126.978 10.5172C127.445 11.5288 127.678 12.816 127.678 14.3793V22.7241C127.678 23.4367 127.481 23.9884 127.088 24.3793C126.695 24.7471 126.13 24.931 125.394 24.931C124.657 24.931 124.079 24.7471 123.662 24.3793C123.269 23.9884 123.072 23.4367 123.072 22.7241V14.5862C123.072 13.2759 122.802 12.3219 122.262 11.7241C121.746 11.1264 120.935 10.8276 119.83 10.8276C118.479 10.8276 117.398 11.2298 116.587 12.0345C115.801 12.816 115.408 13.8621 115.408 15.1724V22.7241C115.408 24.1953 114.635 24.931 113.087 24.931ZM135.893 24.931C135.156 24.931 134.579 24.7471 134.161 24.3793C133.768 23.9884 133.572 23.4367 133.572 22.7241V11.0345H131.877C131.287 11.0345 130.833 10.8966 130.514 10.6207C130.194 10.3219 130.035 9.91948 130.035 9.41379C130.035 8.885 130.194 8.48276 130.514 8.2069C130.833 7.93103 131.287 7.7931 131.877 7.7931H134.898L133.572 8.93103V7.75862C133.572 5.39081 134.21 3.62069 135.488 2.44828C136.765 1.25288 138.607 0.551725 141.015 0.344828L142.268 0.24138C142.759 0.195397 143.152 0.275862 143.447 0.482759C143.741 0.666673 143.938 0.919535 144.036 1.24138C144.134 1.54022 144.147 1.85057 144.073 2.17241C143.999 2.49426 143.84 2.7816 143.594 3.03448C143.373 3.26436 143.078 3.39081 142.71 3.41379L142.194 3.44828C140.794 3.54022 139.774 3.87357 139.136 4.44828C138.497 5.02298 138.178 5.89655 138.178 7.06897V8.34483L137.588 7.7931H141.31C141.899 7.7931 142.353 7.93103 142.673 8.2069C142.992 8.48276 143.152 8.885 143.152 9.41379C143.152 9.91948 142.992 10.3219 142.673 10.6207C142.353 10.8966 141.899 11.0345 141.31 11.0345H138.178V22.7241C138.178 24.1953 137.416 24.931 135.893 24.931ZM153.526 25C151.659 25 150.038 24.6436 148.663 23.931C147.287 23.2184 146.219 22.2069 145.457 20.8965C144.696 19.5633 144.315 18 144.315 16.2069C144.315 14.8505 144.524 13.6436 144.941 12.5862C145.383 11.5057 146.01 10.5862 146.82 9.82759C147.631 9.04603 148.601 8.45983 149.731 8.06896C150.861 7.65517 152.126 7.44828 153.526 7.44828C155.393 7.44828 157.014 7.80466 158.39 8.51724C159.766 9.22983 160.834 10.2414 161.596 11.5517C162.357 12.8621 162.738 14.4138 162.738 16.2069C162.738 17.5633 162.517 18.7815 162.075 19.8621C161.657 20.9426 161.043 21.8736 160.232 22.6552C159.422 23.4138 158.451 24 157.321 24.4138C156.192 24.8047 154.926 25 153.526 25ZM153.526 21.7241C154.435 21.7241 155.234 21.5172 155.921 21.1034C156.609 20.6897 157.137 20.0805 157.506 19.2759C157.899 18.4483 158.095 17.4253 158.095 16.2069C158.095 14.3678 157.678 13 156.842 12.1034C156.007 11.184 154.902 10.7241 153.526 10.7241C152.617 10.7241 151.819 10.931 151.131 11.3448C150.444 11.7357 149.903 12.3448 149.51 13.1724C149.142 13.9771 148.957 14.9884 148.957 16.2069C148.957 18.0229 149.375 19.4022 150.21 20.3448C151.045 21.2643 152.151 21.7241 153.526 21.7241Z" fill="#EE5602"/>
<g id="TrainerHub">
<path id="Vector_2" d="M178.543 56.9979C177.059 56.9979 175.755 56.6269 174.63 55.885C173.529 55.143 172.799 54.1497 172.44 52.9051L172.835 52.0076V54.6284C172.835 55.3704 172.643 55.9448 172.26 56.3517C171.877 56.7346 171.339 56.9261 170.645 56.9261C169.927 56.9261 169.376 56.7346 168.993 56.3517C168.61 55.9448 168.419 55.3704 168.419 54.6284V33.3029C168.419 32.561 168.61 31.9985 168.993 31.6156C169.376 31.2326 169.927 31.0411 170.645 31.0411C171.363 31.0411 171.913 31.2326 172.296 31.6156C172.703 31.9985 172.907 32.561 172.907 33.3029V42.6373H172.476C172.859 41.4645 173.601 40.5191 174.702 39.8011C175.803 39.0831 177.083 38.7241 178.543 38.7241C180.099 38.7241 181.451 39.095 182.6 39.837C183.749 40.579 184.646 41.6321 185.293 42.9963C185.939 44.3366 186.262 45.9522 186.262 47.843C186.262 49.7099 185.939 51.3374 185.293 52.7256C184.646 54.0899 183.737 55.143 182.564 55.885C181.415 56.6269 180.075 56.9979 178.543 56.9979ZM177.287 53.5873C178.172 53.5873 178.95 53.3718 179.62 52.941C180.29 52.5102 180.805 51.876 181.164 51.0383C181.547 50.1766 181.738 49.1115 181.738 47.843C181.738 45.9283 181.332 44.5042 180.518 43.5707C179.704 42.6134 178.627 42.1347 177.287 42.1347C176.401 42.1347 175.623 42.3501 174.953 42.7809C174.283 43.1878 173.756 43.8221 173.373 44.6837C173.014 45.5214 172.835 46.5745 172.835 47.843C172.835 49.7338 173.242 51.1699 174.055 52.1512C174.869 53.1086 175.946 53.5873 177.287 53.5873Z" fill="url(#paint0_linear_3637_3486)"/>
<path id="Vector_3" d="M153.979 56.9995C152.519 56.9995 151.31 56.7362 150.353 56.2097C149.395 55.6592 148.677 54.8454 148.199 53.7684C147.744 52.6913 147.517 51.351 147.517 49.7474V41.0593C147.517 40.2934 147.708 39.7309 148.091 39.3719C148.474 38.989 149.024 38.7975 149.743 38.7975C150.461 38.7975 151.011 38.989 151.394 39.3719C151.801 39.7309 152.004 40.2934 152.004 41.0593V49.8192C152.004 51.0638 152.256 51.9853 152.758 52.5836C153.261 53.182 154.063 53.4812 155.164 53.4812C156.36 53.4812 157.342 53.0743 158.108 52.2605C158.873 51.4228 159.256 50.3219 159.256 48.9576V41.0593C159.256 40.2934 159.448 39.7309 159.831 39.3719C160.214 38.989 160.764 38.7975 161.482 38.7975C162.2 38.7975 162.751 38.989 163.134 39.3719C163.541 39.7309 163.744 40.2934 163.744 41.0593V54.63C163.744 56.1618 163.014 56.9277 161.554 56.9277C160.86 56.9277 160.321 56.7363 159.939 56.3533C159.556 55.9464 159.364 55.372 159.364 54.63V51.9015L159.867 52.9786C159.364 54.271 158.598 55.2643 157.569 55.9584C156.564 56.6525 155.367 56.9995 153.979 56.9995Z" fill="url(#paint1_linear_3637_3486)"/>
<path id="Vector_4" d="M122.582 56.9261C121.84 56.9261 121.266 56.7226 120.859 56.3158C120.476 55.8849 120.285 55.2986 120.285 54.5566V33.4106C120.285 32.6447 120.476 32.0583 120.859 31.6515C121.266 31.2446 121.84 31.0411 122.582 31.0411C123.324 31.0411 123.887 31.2446 124.27 31.6515C124.677 32.0583 124.88 32.6447 124.88 33.4106V41.8834H137.912V33.4106C137.912 32.6447 138.104 32.0583 138.487 31.6515C138.894 31.2446 139.468 31.0411 140.21 31.0411C140.952 31.0411 141.514 31.2446 141.897 31.6515C142.304 32.0583 142.508 32.6447 142.508 33.4106V54.5566C142.508 55.2986 142.304 55.8849 141.897 56.3158C141.514 56.7226 140.952 56.9261 140.21 56.9261C139.468 56.9261 138.894 56.7226 138.487 56.3158C138.104 55.8849 137.912 55.2986 137.912 54.5566V45.7248H124.88V54.5566C124.88 55.2986 124.689 55.8849 124.306 56.3158C123.923 56.7226 123.348 56.9261 122.582 56.9261Z" fill="url(#paint2_linear_3637_3486)"/>
<path id="Vector_5" d="M108.098 56.9243C107.356 56.9243 106.782 56.7328 106.375 56.3498C105.992 55.943 105.801 55.3685 105.801 54.6266V41.0558C105.801 40.3139 105.992 39.7514 106.375 39.3684C106.758 38.9855 107.296 38.794 107.991 38.794C108.685 38.794 109.223 38.9855 109.606 39.3684C109.989 39.7514 110.181 40.3139 110.181 41.0558V43.3176H109.821C110.157 41.8815 110.815 40.7925 111.796 40.0506C112.777 39.3086 114.082 38.8658 115.709 38.7222C116.212 38.6744 116.607 38.806 116.894 39.1171C117.205 39.4043 117.385 39.8591 117.433 40.4814C117.48 41.0797 117.337 41.5704 117.002 41.9534C116.691 42.3124 116.212 42.5278 115.566 42.5996L114.776 42.6714C113.316 42.815 112.215 43.2697 111.473 44.0356C110.731 44.7776 110.36 45.8307 110.36 47.195V54.6266C110.36 55.3685 110.169 55.943 109.786 56.3498C109.403 56.7328 108.84 56.9243 108.098 56.9243Z" fill="url(#paint3_linear_3637_3486)"/>
<path id="Vector_6" d="M94.9963 56.9963C93.0098 56.9963 91.2985 56.6253 89.8624 55.8833C88.4264 55.1413 87.3134 54.0882 86.5236 52.724C85.7577 51.3597 85.3748 49.7442 85.3748 47.8773C85.3748 46.0583 85.7457 44.4666 86.4877 43.1024C87.2536 41.7381 88.2947 40.6731 89.6111 39.9072C90.9514 39.1173 92.4713 38.7224 94.1706 38.7224C95.4152 38.7224 96.5281 38.9259 97.5094 39.3327C98.5147 39.7396 99.3644 40.326 100.058 41.0919C100.776 41.8578 101.315 42.7912 101.674 43.8922C102.057 44.9693 102.248 46.1899 102.248 47.5542C102.248 47.985 102.093 48.3201 101.782 48.5594C101.495 48.7748 101.076 48.8825 100.525 48.8825H89.0008V46.2976H99.0891L98.5147 46.8361C98.5147 45.7352 98.3471 44.8137 98.0121 44.0717C97.7009 43.3298 97.2342 42.7673 96.6119 42.3844C96.0136 41.9775 95.2596 41.774 94.3501 41.774C93.3449 41.774 92.4832 42.0134 91.7652 42.4921C91.0711 42.9468 90.5326 43.605 90.1496 44.4666C89.7906 45.3043 89.6111 46.3096 89.6111 47.4824V47.7337C89.6111 49.6963 90.0659 51.1683 90.9754 52.1496C91.9088 53.1069 93.2731 53.5856 95.0681 53.5856C95.6904 53.5856 96.3845 53.5138 97.1504 53.3702C97.9403 53.2027 98.6822 52.9274 99.3763 52.5445C99.8789 52.2573 100.322 52.1376 100.705 52.1855C101.088 52.2094 101.387 52.341 101.602 52.5804C101.842 52.8197 101.985 53.1189 102.033 53.4779C102.081 53.813 102.009 54.16 101.818 54.5191C101.65 54.8781 101.351 55.1892 100.92 55.4525C100.082 55.979 99.113 56.374 98.0121 56.6372C96.935 56.8766 95.9298 56.9963 94.9963 56.9963Z" fill="url(#paint4_linear_3637_3486)"/>
<path id="Vector_7" d="M67.5701 56.9244C66.8521 56.9244 66.3016 56.733 65.9187 56.35C65.5357 55.9431 65.3442 55.3687 65.3442 54.6268V41.056C65.3442 40.314 65.5357 39.7516 65.9187 39.3686C66.3016 38.9857 66.8401 38.7942 67.5342 38.7942C68.2283 38.7942 68.7668 38.9857 69.1498 39.3686C69.5327 39.7516 69.7242 40.314 69.7242 41.056V43.4973L69.3293 42.5998C69.8558 41.3313 70.6696 40.3739 71.7706 39.7277C72.8955 39.0575 74.164 38.7224 75.5761 38.7224C76.9883 38.7224 78.1491 38.9857 79.0586 39.5122C79.9681 40.0388 80.6502 40.8406 81.105 41.9176C81.5597 42.9708 81.7871 44.3111 81.7871 45.9386V54.6268C81.7871 55.3687 81.5956 55.9431 81.2127 56.35C80.8297 56.733 80.2792 56.9244 79.5612 56.9244C78.8432 56.9244 78.2807 56.733 77.8738 56.35C77.4909 55.9431 77.2994 55.3687 77.2994 54.6268V46.154C77.2994 44.7898 77.0361 43.7965 76.5096 43.1742C76.007 42.5519 75.2171 42.2408 74.1401 42.2408C72.8237 42.2408 71.7706 42.6596 70.9808 43.4973C70.2149 44.3111 69.8319 45.4001 69.8319 46.7643V54.6268C69.8319 56.1586 69.078 56.9244 67.5701 56.9244Z" fill="url(#paint5_linear_3637_3486)"/>
<path id="Vector_8" d="M58.4133 56.8902C57.6953 56.8902 57.1448 56.6748 56.7618 56.2439C56.3789 55.8131 56.1874 55.2148 56.1874 54.4489V41.273C56.1874 40.4832 56.3789 39.8848 56.7618 39.478C57.1448 39.0471 57.6953 38.8317 58.4133 38.8317C59.1313 38.8317 59.6818 39.0471 60.0648 39.478C60.4717 39.8848 60.6751 40.4832 60.6751 41.273V54.4489C60.6751 55.2148 60.4836 55.8131 60.1007 56.2439C59.7177 56.6748 59.1553 56.8902 58.4133 56.8902ZM58.4133 35.4929C57.5756 35.4929 56.9174 35.2895 56.4387 34.8826C55.984 34.4518 55.7566 33.8654 55.7566 33.1234C55.7566 32.3575 55.984 31.7711 56.4387 31.3642C56.9174 30.9573 57.5756 30.7539 58.4133 30.7539C59.2749 30.7539 59.9331 30.9573 60.3879 31.3642C60.8426 31.7711 61.07 32.3575 61.07 33.1234C61.07 33.8654 60.8426 34.4518 60.3879 34.8826C59.9331 35.2895 59.2749 35.4929 58.4133 35.4929Z" fill="url(#paint6_linear_3637_3486)"/>
<path id="Vector_9" d="M42.3351 56.9963C41.0666 56.9963 39.9297 56.7569 38.9245 56.2782C37.9432 55.7756 37.1653 55.1054 36.5909 54.2677C36.0404 53.43 35.7651 52.4846 35.7651 51.4315C35.7651 50.1391 36.1002 49.1219 36.7704 48.3799C37.4405 47.614 38.5295 47.0635 40.0374 46.7284C41.5453 46.3934 43.5677 46.2258 46.1048 46.2258H47.8998V48.8107H46.1407C44.6567 48.8107 43.472 48.8825 42.5864 49.0261C41.7008 49.1697 41.0666 49.421 40.6836 49.7801C40.3246 50.1151 40.1451 50.5938 40.1451 51.2161C40.1451 52.006 40.4204 52.6522 40.9708 53.1548C41.5213 53.6574 42.2872 53.9087 43.2685 53.9087C44.0584 53.9087 44.7525 53.7292 45.3508 53.3702C45.9731 52.9873 46.4638 52.4727 46.8228 51.8264C47.1818 51.1802 47.3613 50.4383 47.3613 49.6006V45.4719C47.3613 44.2752 47.098 43.4135 46.5715 42.887C46.0449 42.3604 45.1594 42.0971 43.9148 42.0971C43.2207 42.0971 42.4667 42.1809 41.653 42.3485C40.8631 42.516 40.0254 42.8032 39.1399 43.2101C38.6851 43.4255 38.2782 43.4853 37.9192 43.3896C37.5841 43.2939 37.3209 43.1024 37.1294 42.8152C36.9379 42.504 36.8422 42.169 36.8422 41.8099C36.8422 41.4509 36.9379 41.1039 37.1294 40.7688C37.3209 40.4098 37.644 40.1465 38.0987 39.979C39.1997 39.5242 40.2528 39.2011 41.2581 39.0096C42.2872 38.8181 43.2207 38.7224 44.0584 38.7224C45.7816 38.7224 47.1938 38.9857 48.2947 39.5122C49.4197 40.0388 50.2574 40.8406 50.8078 41.9176C51.3583 42.9708 51.6336 44.335 51.6336 46.0104V54.6268C51.6336 55.3687 51.4541 55.9431 51.0951 56.35C50.736 56.733 50.2215 56.9245 49.5513 56.9245C48.8811 56.9245 48.3546 56.733 47.9716 56.35C47.6126 55.9431 47.4331 55.3687 47.4331 54.6268V52.9035H47.7203C47.5528 53.7412 47.2177 54.4712 46.7151 55.0935C46.2364 55.6918 45.6261 56.1586 44.8841 56.4936C44.1421 56.8287 43.2925 56.9963 42.3351 56.9963Z" fill="url(#paint7_linear_3637_3486)"/>
<path id="Vector_10" d="M24.9725 56.9243C24.2305 56.9243 23.6561 56.7328 23.2492 56.3498C22.8663 55.943 22.6748 55.3685 22.6748 54.6266V41.0558C22.6748 40.3139 22.8663 39.7514 23.2492 39.3684C23.6322 38.9855 24.1707 38.794 24.8648 38.794C25.5589 38.794 26.0974 38.9855 26.4804 39.3684C26.8633 39.7514 27.0548 40.3139 27.0548 41.0558V43.3176H26.6958C27.0308 41.8815 27.689 40.7925 28.6703 40.0506C29.6517 39.3086 30.9561 38.8658 32.5836 38.7222C33.0862 38.6744 33.4811 38.806 33.7684 39.1171C34.0795 39.4043 34.259 39.8591 34.3069 40.4814C34.3547 41.0797 34.2111 41.5704 33.8761 41.9534C33.5649 42.3124 33.0862 42.5278 32.44 42.5996L31.6502 42.6714C30.1902 42.815 29.0892 43.2697 28.3472 44.0356C27.6053 44.7776 27.2343 45.8307 27.2343 47.195V54.6266C27.2343 55.3685 27.0428 55.943 26.6599 56.3498C26.2769 56.7328 25.7145 56.9243 24.9725 56.9243Z" fill="url(#paint8_linear_3637_3486)"/>
<path id="Vector_11" d="M12.0109 56.9229C11.2689 56.9229 10.6945 56.7195 10.2876 56.3126C9.90463 55.8818 9.71316 55.2954 9.71316 54.5534V35.1667H2.71237C2.09008 35.1667 1.59943 34.9991 1.24041 34.664C0.905333 34.305 0.737793 33.8263 0.737793 33.228C0.737793 32.6057 0.905333 32.139 1.24041 31.8278C1.59943 31.4927 2.09008 31.3252 2.71237 31.3252H21.3093C21.9316 31.3252 22.4103 31.4927 22.7454 31.8278C23.1044 32.139 23.2839 32.6057 23.2839 33.228C23.2839 33.8263 23.1044 34.305 22.7454 34.664C22.4103 34.9991 21.9316 35.1667 21.3093 35.1667H14.3085V54.5534C14.3085 55.2954 14.1171 55.8818 13.7341 56.3126C13.3512 56.7195 12.7768 56.9229 12.0109 56.9229Z" fill="url(#paint9_linear_3637_3486)"/>
</g>
</g>
<defs>
<linearGradient id="paint0_linear_3637_3486" x1="0.847496" y1="45.669" x2="188.333" y2="45.669" gradientUnits="userSpaceOnUse">
<stop stop-color="#E2028C"/>
<stop offset="1" stop-color="#0E5CAB"/>
</linearGradient>
<linearGradient id="paint1_linear_3637_3486" x1="0.843434" y1="45.6706" x2="188.329" y2="45.6706" gradientUnits="userSpaceOnUse">
<stop stop-color="#E2028C"/>
<stop offset="1" stop-color="#0E5CAB"/>
</linearGradient>
<linearGradient id="paint2_linear_3637_3486" x1="0.840509" y1="45.669" x2="188.326" y2="45.669" gradientUnits="userSpaceOnUse">
<stop stop-color="#E2028C"/>
<stop offset="1" stop-color="#0E5CAB"/>
</linearGradient>
<linearGradient id="paint3_linear_3637_3486" x1="0.846282" y1="45.6672" x2="188.332" y2="45.6672" gradientUnits="userSpaceOnUse">
<stop stop-color="#E2028C"/>
<stop offset="1" stop-color="#0E5CAB"/>
</linearGradient>
<linearGradient id="paint4_linear_3637_3486" x1="0.848119" y1="45.6674" x2="188.334" y2="45.6674" gradientUnits="userSpaceOnUse">
<stop stop-color="#E2028C"/>
<stop offset="1" stop-color="#0E5CAB"/>
</linearGradient>
<linearGradient id="paint5_linear_3637_3486" x1="0.849228" y1="45.6674" x2="188.335" y2="45.6674" gradientUnits="userSpaceOnUse">
<stop stop-color="#E2028C"/>
<stop offset="1" stop-color="#0E5CAB"/>
</linearGradient>
<linearGradient id="paint6_linear_3637_3486" x1="0.843061" y1="45.669" x2="188.328" y2="45.669" gradientUnits="userSpaceOnUse">
<stop stop-color="#E2028C"/>
<stop offset="1" stop-color="#0E5CAB"/>
</linearGradient>
<linearGradient id="paint7_linear_3637_3486" x1="0.844235" y1="45.6674" x2="188.33" y2="45.6674" gradientUnits="userSpaceOnUse">
<stop stop-color="#E2028C"/>
<stop offset="1" stop-color="#0E5CAB"/>
</linearGradient>
<linearGradient id="paint8_linear_3637_3486" x1="0.847842" y1="45.6672" x2="188.333" y2="45.6672" gradientUnits="userSpaceOnUse">
<stop stop-color="#E2028C"/>
<stop offset="1" stop-color="#0E5CAB"/>
</linearGradient>
<linearGradient id="paint9_linear_3637_3486" x1="0.845497" y1="45.6658" x2="188.331" y2="45.6658" gradientUnits="userSpaceOnUse">
<stop stop-color="#E2028C"/>
<stop offset="1" stop-color="#0E5CAB"/>
</linearGradient>
</defs>
</svg>
