<svg width="20" height="20" viewBox="0 0 20 20" fill="none" xmlns="http://www.w3.org/2000/svg">
<g id="notifications_unread">
<mask id="mask0_5164_786" style="mask-type:alpha" maskUnits="userSpaceOnUse" x="0" y="0" width="20" height="20">
<rect id="Bounding box" width="20" height="20" fill="#D9D9D9"/>
</mask>
<g mask="url(#mask0_5164_786)">
<path id="notifications_unread_2" d="M10.0002 18.3332C9.54183 18.3332 9.14947 18.17 8.82308 17.8436C8.49669 17.5172 8.3335 17.1248 8.3335 16.6665H11.6668C11.6668 17.1248 11.5036 17.5172 11.1772 17.8436C10.8509 18.17 10.4585 18.3332 10.0002 18.3332ZM3.3335 15.8332V14.1665H5.00016V8.33317C5.00016 7.18039 5.34739 6.15609 6.04183 5.26025C6.73627 4.36442 7.63905 3.77762 8.75016 3.49984V2.9165C8.75016 2.56928 8.87169 2.27414 9.11475 2.03109C9.3578 1.78803 9.65294 1.6665 10.0002 1.6665C10.3474 1.6665 10.6425 1.78803 10.8856 2.03109C11.1286 2.27414 11.2502 2.56928 11.2502 2.9165V3.18734C11.0974 3.49289 10.9863 3.80539 10.9168 4.12484C10.8474 4.44428 10.8196 4.77067 10.8335 5.104C10.6946 5.07623 10.5592 5.05192 10.4272 5.03109C10.2953 5.01025 10.1529 4.99984 10.0002 4.99984C9.0835 4.99984 8.29877 5.32623 7.646 5.979C6.99322 6.63178 6.66683 7.4165 6.66683 8.33317V14.1665H13.3335V8.81234C13.5835 8.92345 13.8509 9.01025 14.1356 9.07275C14.4203 9.13525 14.7085 9.1665 15.0002 9.1665V14.1665H16.6668V15.8332H3.3335ZM15.0002 7.49984C14.3057 7.49984 13.7154 7.25678 13.2293 6.77067C12.7432 6.28456 12.5002 5.69428 12.5002 4.99984C12.5002 4.30539 12.7432 3.71512 13.2293 3.229C13.7154 2.74289 14.3057 2.49984 15.0002 2.49984C15.6946 2.49984 16.2849 2.74289 16.771 3.229C17.2571 3.71512 17.5002 4.30539 17.5002 4.99984C17.5002 5.69428 17.2571 6.28456 16.771 6.77067C16.2849 7.25678 15.6946 7.49984 15.0002 7.49984Z" fill="#8B8B8B"/>
</g>
</g>
</svg>
